<?xml version="1.0" ?><!DOCTYPE svg  PUBLIC '-//W3C//DTD SVG 1.1//EN'  'http://www.w3.org/Graphics/SVG/1.1/DTD/svg11.dtd'><svg enable-background="new 0 0 50 50" height="50px" version="1.1" viewBox="0 0 50 50" width="50px" xml:space="preserve" xmlns="http://www.w3.org/2000/svg" xmlns:xlink="http://www.w3.org/1999/xlink"><g id="Layer_23"/><g id="Layer_22"/><g id="Layer_21"/><g id="Layer_20"/><g id="Layer_19"/><g id="Layer_18"/><g id="Layer_17"/><g id="Layer_16"/><g id="Layer_15"/><g id="Layer_14"/><g id="Layer_13"/><g id="Layer_12"/><g id="Layer_11"><path clip-rule="evenodd" d="M5.041,7.863c-3.81,3.258-6.17,8.196-4.492,13.178   c1.253,3.721,3.858,5.557,7.172,7.256l0.715-0.957c2.14-2.864,4.493-4.47,8.068-4.812l-3.052,21.13   c7.76,6.05,15.334,6.055,23.094,0l-3.051-21.13c4.3,0.412,6.287,2.427,8.783,5.769c3.313-1.698,5.92-3.536,7.173-7.256   c1.678-4.982-0.683-9.919-4.492-13.178C35.516-0.217,14.484-0.217,5.041,7.863 M6.883,10.015c8.385-7.176,27.849-7.175,36.234,0   c2.909,2.489,4.947,6.27,3.649,10.127c-0.584,1.731-1.824,3.31-3.709,4.517c-3.775-4.468-7.371-5.045-12.848-5.045l3.294,22.808   c-5.479,3.925-11.529,3.925-17.008,0l3.295-22.808c-5.559,0-9.111,0.625-12.847,5.045c-1.886-1.207-3.126-2.786-3.709-4.517   C1.934,16.285,3.974,12.504,6.883,10.015z" fill-rule="evenodd"/></g><g id="Layer_10"/><g id="Layer_9"/><g id="Layer_8"/><g id="Layer_7"/><g id="Layer_6"/><g id="Layer_5"/><g id="Layer_4"/><g id="Layer_3"/><g id="Layer_2"/></svg>