<?xml version="1.0" encoding="iso-8859-1"?>
<!-- Generator: Adobe Illustrator 19.0.0, SVG Export Plug-In . SVG Version: 6.00 Build 0)  -->
<svg version="1.1" id="Capa_1" xmlns="http://www.w3.org/2000/svg" xmlns:xlink="http://www.w3.org/1999/xlink" x="0px" y="0px"
	 viewBox="0 0 480 480" style="enable-background:new 0 0 480 480;" xml:space="preserve">
<path id="XMLID_799_" d="M440,0H40C17.944,0,0,17.944,0,40c0,18.907,13.185,34.792,30.844,38.943L70.05,470.995
	C70.561,476.107,74.862,480,80,480h320c5.138,0,9.439-3.893,9.95-9.005l39.206-392.052C466.815,74.792,480,58.907,480,40
	C480,17.944,462.056,0,440,0z M290,460c-21.767,0-40.562-13.708-47.351-33.917C253.447,413.762,260,397.631,260,380
	c0-3.22-0.219-6.39-0.642-9.496C268.102,363.698,278.804,360,290,360c27.57,0,50,22.43,50,50S317.57,460,290,460z M390.95,460
	h-52.007C351.93,447.285,360,429.568,360,410c0-38.598-31.402-70-70-70c-13.082,0-25.68,3.603-36.604,10.329
	C242.209,326.524,217.997,310,190,310c-38.598,0-70,31.402-70,70s31.402,70,70,70c13.41,0,25.948-3.789,36.605-10.354
	c3.545,7.558,8.436,14.474,14.424,20.354H89.05L64.051,210.017H170C170.008,248.608,201.407,280,240,280s69.992-31.392,70-69.983
	h105.949L390.95,460z M240,380c0,27.57-22.43,50-50,50s-50-22.43-50-50s22.43-50,50-50c23.604,0,43.44,16.442,48.659,38.474
	c0.053,0.295,0.12,0.589,0.2,0.879C239.606,372.786,240,376.347,240,380z M190,210c0-27.57,22.43-50,50-50s50,22.43,50,50
	s-22.43,50-50,50S190,237.57,190,210z M417.949,190.017H307.095C298.474,161.123,271.658,140,240,140s-58.474,21.123-67.095,50.017
	H62.051L51.05,80h377.9L417.949,190.017z M440,60H40c-11.028,0-20-8.972-20-20c0-11.028,8.972-20,20-20h400c11.028,0,20,8.972,20,20
	S451.028,60,440,60z"/>
<g>
</g>
<g>
</g>
<g>
</g>
<g>
</g>
<g>
</g>
<g>
</g>
<g>
</g>
<g>
</g>
<g>
</g>
<g>
</g>
<g>
</g>
<g>
</g>
<g>
</g>
<g>
</g>
<g>
</g>
</svg>
