<?xml version="1.0" ?><!DOCTYPE svg  PUBLIC '-//W3C//DTD SVG 1.1//EN'  'http://www.w3.org/Graphics/SVG/1.1/DTD/svg11.dtd'><svg enable-background="new 0 0 50 50" height="50px" version="1.1" viewBox="0 0 50 50" width="50px" xml:space="preserve" xmlns="http://www.w3.org/2000/svg" xmlns:xlink="http://www.w3.org/1999/xlink"><g id="Layer_23"/><g id="Layer_22"/><g id="Layer_21"/><g id="Layer_20"/><g id="Layer_19"/><g id="Layer_18"/><g id="Layer_17"/><g id="Layer_16"/><g id="Layer_15"/><g id="Layer_14"/><g id="Layer_13"/><g id="Layer_12"/><g id="Layer_11"/><g id="Layer_10"/><g id="Layer_9"/><g id="Layer_8"/><g id="Layer_7"/><g id="Layer_6"/><g id="Layer_5"/><g id="Layer_4"/><g id="Layer_3"/><g id="Layer_2"><path clip-rule="evenodd" d="M20.938,13.051c-3.328,3.135-6.558,4.822-10.558,6.629   c1.371-3.278,3.046-6.327,5.334-8.922c2.626-2.977,6.099-5.398,10.909-6.943C25.713,7.367,23.739,10.413,20.938,13.051    M15.161,38.498c0-2.484,1.162-8.696,4.534-8.696c3.372,0,4.535,6.211,4.535,8.696c0,2.484-1.163,8.696-4.535,8.696   C16.324,47.194,15.161,40.981,15.161,38.498z M33.731,25.551c-3.211-1.657-6.079-4.404-8.8-7.636   c4.264-0.46,8.167-0.194,11.551,1.066c3.521,1.311,6.52,3.728,8.827,7.564C40.833,27.83,37.062,27.27,33.731,25.551z    M12.355,38.498c0,1.66,0.222,3.242,0.618,4.669c-0.561,1.601-1.879,3.995-3.785,3.995c-3.373,0-4.535-6.211-4.535-8.696   c0-2.485,1.162-8.696,4.535-8.696c1.915,0,3.238,2.416,3.795,4.025C12.58,35.229,12.355,36.824,12.355,38.498z M14.686,21.059   c2.199,1.673,3.013,3.474,3.448,6.186c-1.592,0.52-2.813,1.749-3.683,3.141c-0.977-1.571-2.245-2.693-3.689-3.168   C11.277,24.419,12.407,22.727,14.686,21.059z M17.547,19.818c1.392-0.492,2.796-0.942,4.212-1.347   c3.227,4.01,6.666,7.491,10.691,9.568c5.961,3.076,10.856,2.298,16.864,0.076c-2.823-5.517-5.808-9.504-11.856-11.755   c-3.77-1.404-11.092-1.999-14.866-1.024c5.082-4.72,6.618-8.688,7.476-15.336C23.398,1.657,18.321,3.577,13.62,8.907   c-3.202,3.631-5.271,7.963-6.936,12.553c-2.023,1.035-4.022,2.158-5.998,3.365l1.458,2.389c2.066-1.262,4.635-2.821,6.861-3.732   c-0.482,1.039-0.84,2.232-1.066,3.64c-4.463,1.15-6.093,7.348-6.093,11.344c0,4.28,2.039,11.502,7.341,11.502   c2.085,0,3.926-1.288,5.244-3.39c1.32,2.121,3.17,3.422,5.264,3.422c5.301,0,7.341-7.223,7.341-11.502   c0-3.994-1.628-10.186-6.084-11.342C20.531,24.262,19.66,21.836,17.547,19.818z" fill-rule="evenodd"/></g></svg>