<?xml version="1.0" encoding="iso-8859-1"?>
<!-- Generator: Adobe Illustrator 19.0.0, SVG Export Plug-In . SVG Version: 6.00 Build 0)  -->
<svg version="1.1" id="Layer_1" xmlns="http://www.w3.org/2000/svg" xmlns:xlink="http://www.w3.org/1999/xlink" x="0px" y="0px"
	 viewBox="0 0 511.994 511.994" style="enable-background:new 0 0 511.994 511.994;" xml:space="preserve">
<g>
	<g>
		<path d="M461.567,202.831c-21.74-36.236-49.786-68.674-83.356-96.448c-21.065-29.648-39.959-48.439-47.273-55.285
			c4.162-10.989,7.974-22.166,11.319-33.533c1.44-4.894-1.36-10.028-6.254-11.468c-4.896-1.443-10.028,1.36-11.469,6.254
			c-10.65,36.196-26.019,70.571-43.656,102.333c-14.365-2.665-47.104-7.128-88.661-2.611
			c-50.972,5.541-125.253,26.295-189.659,93.704c-2.323,2.431-3.142,5.933-2.135,9.141c1.005,3.209,3.675,5.618,6.97,6.289
			c22.053,4.491,43.024,6.422,62.787,6.422c62.112,0,112.28-19.076,146.434-37.688c10.208-5.563,19.443-11.304,27.701-16.922
			c-22.176,31.727-45.253,59.394-65.7,81.803c-54.665,59.908-102.928,96.289-103.41,96.649c-4.081,3.058-4.912,8.847-1.856,12.928
			c1.815,2.422,4.591,3.701,7.401,3.701c1.925,0,3.867-0.6,5.526-1.844c1.655-1.239,34.352-25.874,76.953-68.573l5.247,23.546
			c-0.149,0.369-0.314,0.725-0.461,1.099c-1.08,2.763-2.028,5.586-2.893,8.441c-22.303,11.452-40.366,33.815-48.786,60.692
			c-7.331,23.405-6.873,47.8,1.291,68.692c8.442,21.606,24.053,36.938,43.954,43.172c6.318,1.979,12.803,2.948,19.32,2.948
			c17.501,0,35.204-7.01,50.345-20.173c12.056,5.574,24.544,8.424,36.909,8.424c8.08,0,16.107-1.211,23.921-3.659
			c24.641-7.72,43.988-26.746,54.473-53.572c10.209-26.117,10.774-56.641,1.592-85.949c-9.182-29.309-27.064-54.053-50.35-69.676
			c-20.774-13.938-43.677-19.223-65.488-15.316l-7.783-36.536c27.705-34.084,56.769-75.296,80.728-121.504
			c-1.215,20.385-1.227,45.431,1.826,73.511c4.711,43.34,15.805,84.895,32.972,123.508c21.466,48.278,52.518,92.027,92.294,130.031
			c1.744,1.666,4.038,2.558,6.382,2.558c0.922,0,1.853-0.138,2.76-0.422c3.208-1.005,5.618-3.675,6.288-6.97
			c5.419-26.601,8.283-53.137,8.614-79.432c13.189,9.744,27.209,18.766,41.893,26.903c1.395,0.773,2.937,1.158,4.478,1.158
			c1.707,0,3.411-0.473,4.908-1.411c2.848-1.787,4.501-4.981,4.314-8.34C508.614,309.018,491.651,252.973,461.567,202.831z
			 M191.989,267.575c5.654-6.191,11.512-12.798,17.489-19.751l5.094,23.912c-12.693,5.506-23.706,14.219-32.496,25.575l-3.438-15.43
			C183.025,277.273,187.478,272.516,191.989,267.575z M167.111,485.703c-14.449-4.526-25.91-15.985-32.272-32.267
			c-6.64-16.992-6.948-37.039-0.868-56.447c5.162-16.482,14.571-30.817,26.408-40.89c-1.379,17.044,0.612,34.823,6.05,52.183
			c8.836,28.203,25.742,52.154,47.753,67.844C199.37,486.901,182.397,490.496,167.111,485.703z M228.019,286.387
			c5.961-1.868,12.106-2.791,18.325-2.791c13.799,0,27.948,4.548,41.166,13.416c19.807,13.289,35.082,34.547,43.013,59.859
			c7.93,25.311,7.516,51.486-1.169,73.701c-8.406,21.505-23.603,36.659-42.791,42.67c-19.191,6.013-40.316,2.239-59.49-10.625
			c-19.807-13.289-35.082-34.547-43.013-59.859s-7.517-51.486,1.167-73.701C193.633,307.553,208.83,292.398,228.019,286.387z
			 M207.141,174.069c-26.901,14.576-55.292,24.762-84.388,30.274c-30.738,5.823-62.382,6.417-94.294,1.793
			c23.571-22.008,49.897-39.574,78.461-52.33c27.039-12.075,56.168-19.911,86.577-23.289c31.439-3.494,57.845-1.441,73.919,0.755
			C255.467,142.247,234.949,159,207.141,174.069z M432.797,409.754c-32.055-33.258-57.472-70.696-75.674-111.501
			c-16.4-36.764-27.03-76.363-31.597-117.696c-5.209-47.164-1.235-85.978,2.026-106.731c14.518,15.183,39.93,44.79,62.563,86.496
			c19.835,36.55,33.699,75.135,41.209,114.684C439.657,318.903,440.146,364.15,432.797,409.754z M455.992,327.475
			c-0.869-18.975-3.057-37.797-6.611-56.391c-6.624-34.662-17.916-68.585-33.603-101.126c11.053,13.421,21.063,27.565,29.949,42.377
			c25.615,42.694,41.201,89.947,46.435,140.685C479.431,345.161,467.328,336.606,455.992,327.475z"/>
	</g>
</g>
<g>
</g>
<g>
</g>
<g>
</g>
<g>
</g>
<g>
</g>
<g>
</g>
<g>
</g>
<g>
</g>
<g>
</g>
<g>
</g>
<g>
</g>
<g>
</g>
<g>
</g>
<g>
</g>
<g>
</g>
</svg>
