<?xml version="1.0" ?><!DOCTYPE svg  PUBLIC '-//W3C//DTD SVG 1.1//EN'  'http://www.w3.org/Graphics/SVG/1.1/DTD/svg11.dtd'><svg enable-background="new 0 0 50 50" height="50px" version="1.1" viewBox="0 0 50 50" width="50px" xml:space="preserve" xmlns="http://www.w3.org/2000/svg" xmlns:xlink="http://www.w3.org/1999/xlink"><g id="Layer_23"/><g id="Layer_22"/><g id="Layer_21"/><g id="Layer_20"/><g id="Layer_19"/><g id="Layer_18"/><g id="Layer_17"/><g id="Layer_16"/><g id="Layer_15"/><g id="Layer_14"/><g id="Layer_13"/><g id="Layer_12"/><g id="Layer_11"/><g id="Layer_10"/><g id="Layer_9"/><g id="Layer_8"/><g id="Layer_7"/><g id="Layer_6"><path clip-rule="evenodd" d="M34.642,8.895c1.921-1.285,5.254-1.268,6.466,0.926   c2.223,4.017,0.042,14.843-1.204,19.005c-1.104,3.687-2.641,7.252-4.67,10.526c0.497-3.409,0.763-6.942,0.744-10.461   c-0.027-5.122-0.655-10.208-2.044-14.831C33.31,12.085,32.481,10.341,34.642,8.895 M26.758,23c1.221,1.018,0.995,2.341,0.486,3.799   c-1.313,3.748-4.584,8.009-7.191,10.727c-1.668,1.738-3.497,3.316-5.491,4.67c1.237-1.861,2.382-3.825,3.387-5.847   c1.79-3.597,3.148-7.39,3.81-11.137c0.19-1.176,0.179-2.547,1.519-2.984C24.422,21.856,25.845,22.244,26.758,23z M28.882,21.265   c-0.349-0.341-0.769-0.66-1.265-0.95c0.464-2.49-0.437-4.486-2.516-5.934l-1.544,2.221c1.047,0.73,1.585,1.553,1.456,2.838   c-0.88-0.11-1.768-0.044-2.569,0.217c-2.676,0.872-2.946,2.796-3.349,5.09c-0.614,3.476-1.885,7.019-3.567,10.396   c-2.839,5.705-6.276,9.723-10.275,14.494c6.95-2.87,11.435-4.646,16.901-10.404c2.76-2.907,6.017-7.215,7.514-11.203   C30.631,25.467,30.699,23.042,28.882,21.265z M37.882,5.33C37.07,2.221,35.011,0.454,31.82,0l-0.381,2.676   c1.948,0.277,3.149,1.138,3.736,3.023c-0.772,0.242-1.498,0.59-2.135,1.029c-3.343,2.307-2.651,4.911-1.698,8.105   c1.317,4.382,1.913,9.207,1.938,14.069c0.039,7.639-1.349,13.824-3.057,21.098c5.983-6.932,9.686-11.545,12.378-20.77   c1.454-4.981,3.514-15.934,0.876-20.708C42.322,6.429,40.191,5.397,37.882,5.33z" fill-rule="evenodd"/></g><g id="Layer_5"/><g id="Layer_4"/><g id="Layer_3"/><g id="Layer_2"/></svg>