<?xml version="1.0" ?><!DOCTYPE svg  PUBLIC '-//W3C//DTD SVG 1.1//EN'  'http://www.w3.org/Graphics/SVG/1.1/DTD/svg11.dtd'><svg enable-background="new 0 0 50 50" height="50px" version="1.1" viewBox="0 0 50 50" width="50px" xml:space="preserve" xmlns="http://www.w3.org/2000/svg" xmlns:xlink="http://www.w3.org/1999/xlink"><g id="Layer_23"/><g id="Layer_22"/><g id="Layer_21"/><g id="Layer_20"/><g id="Layer_19"/><g id="Layer_18"/><g id="Layer_17"/><g id="Layer_16"/><g id="Layer_15"/><g id="Layer_14"/><g id="Layer_13"/><g id="Layer_12"/><g id="Layer_11"/><g id="Layer_10"/><g id="Layer_9"/><g id="Layer_8"><path clip-rule="evenodd" d="M4.957,20.828c11.279-2.035,25.296,9.523,32.456,17.041   c-6.957,6.68-18.119,6.565-24.94-0.256c-3.877-3.877-5.427-8.66-5.177-14.003C6.537,22.664,5.768,21.731,4.957,20.828    M27.018,25.284c4.997-3.061,12.112-6.195,18.213-5.07l-2.438,2.777c0.366,4.781-0.609,8.988-3.562,12.845   C35.178,31.6,31.053,28.064,27.018,25.284z M9.095,10.882c6.48,0.791,13.667,6.6,17.935,11.235   c-0.835,0.477-1.676,0.986-2.519,1.53c-4.688-2.892-10.257-5.385-15.793-5.717c0.574-1.316,1.252-2.397,2.044-3.575L9.095,10.882z    M29.51,20.794c-0.714-0.796-1.448-1.566-2.197-2.307c3.668-3.188,8.976-6.751,13.927-7.337l-1.678,3.507   c0.578,0.876,1.113,1.717,1.58,2.659C37.116,17.604,33.087,19.02,29.51,20.794z M37.971,9.077   C30.507,3.017,20.005,2.947,12.42,8.833C9.478,7.938,7.75,8.036,4.835,8.281l2.81,5.855c-0.751,1.213-1.384,2.503-1.877,3.842   C3.574,18.193,2.007,18.822,0,19.57c1.578,1.621,3.105,3.2,4.539,4.953c-0.129,5.651,2.007,11.018,6.007,15.018   c7.979,7.979,21.077,7.98,29.056,0c4.187-4.187,6.245-9.716,5.984-15.612L50,18.898c-2.058-0.768-3.618-1.379-5.878-1.57   c-0.41-0.992-0.897-1.956-1.453-2.874l2.822-5.899C42.614,8.313,40.88,8.209,37.971,9.077z M25.319,16.618   c-2.92-2.596-6.268-4.988-9.838-6.616c5.979-3.805,13.579-3.743,19.468,0.214C31.473,11.779,28.172,14.11,25.319,16.618z" fill-rule="evenodd"/></g><g id="Layer_7"/><g id="Layer_6"/><g id="Layer_5"/><g id="Layer_4"/><g id="Layer_3"/><g id="Layer_2"/></svg>