<svg id="Layer_5" enable-background="new 0 0 64 64" height="512" viewBox="0 0 64 64" width="512" xmlns="http://www.w3.org/2000/svg"><circle cx="46" cy="46" r="1"/><circle cx="51" cy="41" r="1"/><path d="m31 51v-2c-4.962 0-9-4.037-9-9h-2c0 6.065 4.935 11 11 11z"/><path d="m34 25v-7.542l-3.768-2.458h-2.232v.943c-1.748-.896-3.421-1.484-5-1.758v-6.717l-3.66-2.468h-2.34v9.185c-1.684.292-3.472.934-5.346 1.932-2.308 1.232-4.836 1.883-7.309 1.883h-2.759l1.707 1.707c.073.073 1.442 1.399 3.619 1.997-.586 1.047-1.04 2.151-1.358 3.296h-4.554v29.236l.105.211c1.405 2.809 4.228 4.553 7.367 4.553h47.056c3.14 0 5.962-1.744 7.367-4.553l.105-.211v-29.236zm27 28h-8.09c.809-.508 1.578-1.104 2.282-1.808 5.065-5.065 5.068-13.305.011-18.374l-1.182-1.254-8.036 8.036c-.064-2.439-.709-4.79-1.887-6.899 2.172-.6 3.537-1.922 3.609-1.995l1.707-1.706h-2.759c-2.473 0-5-.651-7.309-1.883-.078-.042-.155-.077-.232-.117h21.886zm-44.727-15.81c-3.194-1.443-5.273-4.6-5.273-8.19h-2c0 4.603 2.794 8.628 7.028 10.257-.012.247-.028.494-.028.743 0 .469.028.93.07 1.388-5.326-1.69-9.07-6.696-9.07-12.388 0-2.499.719-4.905 2.068-7.003 2.087-.018 4.925-.859 6.949-1.567.123-.044.225-.015.289.018.055.026.153.092.198.229l1.23 3.692c.327.976 1.237 1.631 2.266 1.631s1.939-.655 2.265-1.632l1.23-3.693c.045-.136.144-.201.198-.228.064-.032.167-.062.288-.018 1.056.369 2.541.836 4.018 1.166v3.589c-1.684.292-3.472.934-5.346 1.932-2.307 1.233-4.835 1.884-7.308 1.884h-2.759l1.707 1.707c.073.073 1.437 1.395 3.61 1.995-.785 1.403-1.332 2.914-1.63 4.488zm22.131-8.307c1.697.904 3.502 1.53 5.331 1.856-.518.157-1.101.261-1.735.261-1.907 0-4.802-.914-6.357-1.459-.605-.212-1.255-.172-1.83.11-.579.284-1.01.779-1.214 1.392l-1.23 3.692c-.105.316-.63.316-.735 0l-1.23-3.691c-.204-.613-.635-1.108-1.214-1.393-.331-.162-.687-.244-1.044-.244-.264 0-.529.045-.786.135-1.558.544-4.453 1.458-6.36 1.458-.628 0-1.209-.104-1.727-.263 1.826-.326 3.629-.951 5.323-1.854 1.61-.86 4.028-1.883 6.404-1.883h2c2.376 0 4.794 1.023 6.404 1.883zm-18.348 4.114c2.088-.015 4.933-.858 6.961-1.568.123-.044.224-.015.289.018.055.026.153.092.198.229l1.23 3.692c.327.977 1.237 1.632 2.266 1.632s1.939-.655 2.265-1.632l1.23-3.693c.045-.136.144-.201.198-.228.063-.032.166-.059.288-.019 2.029.711 4.874 1.554 6.962 1.569 1.342 2.092 2.057 4.498 2.057 7.003 0 .57-.046 1.141-.119 1.705l-8.316 8.316 1.243 1.171c.704.704 1.473 1.299 2.282 1.808h-8.09c-7.168 0-13-5.832-13-13 0-2.505.715-4.911 2.056-7.003zm25.864 9.498c1.452 1.581 3.499 2.505 5.685 2.505h.709c-1.126 2.361-3.53 4-6.315 4-1.769 0-3.447-.67-4.732-1.853zm-6.068 6.068c1.659 1.557 3.845 2.437 6.148 2.437 4.962 0 9-4.037 9-9 0-2.302-.879-4.488-2.437-6.149l1.42-1.42c4.083 4.304 4.015 11.127-.204 15.347-4.212 4.213-11.021 4.287-15.347.204zm11.294-11.295c1.184 1.285 1.854 2.964 1.854 4.732 0 .34-.033.672-.08 1h-1.315c-1.649 0-3.194-.707-4.274-1.917zm-21.146-20.032 2 1.306v6.458h-2zm-11-10.053 2 1.35v5.467h-2zm-6.404 10.7c1.61-.86 4.028-1.883 6.404-1.883h2c2.376 0 4.794 1.023 6.404 1.882.196.105.397.194.596.291v1.378c-1.237-.301-2.459-.696-3.357-1.01-.605-.212-1.255-.172-1.83.11-.579.284-1.01.779-1.214 1.392l-1.23 3.692c-.105.316-.63.316-.735 0l-1.23-3.691c-.204-.613-.635-1.108-1.214-1.393-.575-.282-1.227-.321-1.831-.109-1.557.544-4.452 1.458-6.359 1.458-.628 0-1.209-.104-1.727-.263 1.826-.326 3.629-.951 5.323-1.854zm42.932 39.117h-47.056c-1.775 0-3.411-.742-4.571-2h3.099v-2h-4v-26h2.142c-.089.659-.142 1.326-.142 2 0 6.91 4.784 12.939 11.445 14.561.987 4.029 3.596 7.42 7.104 9.439h-14.549v2h51.099c-1.16 1.258-2.796 2-4.571 2z"/><path d="m5 45h2v2h-2z"/><path d="m5 49h2v2h-2z"/><path d="m5 41h2v2h-2z"/></svg>